<?xml version="1.0" encoding="UTF-8"?>
<svg xmlns="http://www.w3.org/2000/svg" version="1.1" width="4000" height="2000" viewBox="0 0 4000 2000" data-layer-id="srf_nat_marine_regions_pg" data-map-west="-180.0" data-map-south="-90.0" data-map-east="180.0" data-map-north="90.0">
  <metadata>
    <rdf:RDF xmlns:rdf="http://www.w3.org/1999/02/22-rdf-syntax-ns#" xmlns:dc="http://purl.org/dc/elements/1.1/">
      <rdf:Description rdf:about="">
        <dc:title>Toril GIS: Editable Offline Map of the Forgotten Realms - srf_nat_marine_regions_pg</dc:title>
        <dc:creator>Geospatial Grimoire</dc:creator>
        <dc:source>https://github.com/geospatial-grimoire/toril-gis</dc:source>
        <dc:rights>Unofficial Fan Content permitted under the Wizards of the Coast Fan Content Policy. Not approved or endorsed by Wizards. Portions of the materials used are property of Wizards of the Coast. Copyright Wizards of the Coast LLC.</dc:rights>
        <dc:description>Geospatial Grimoire. Toril GIS: Editable Offline Map of the Forgotten Realms. Available at: https://github.com/geospatial-grimoire/toril-gis</dc:description>
      </rdf:Description>
    </rdf:RDF>
  </metadata>
  <style>
    .layer-fill { fill: #d8d8d8; fill-opacity: 0.45; stroke: #222; stroke-width: 1; vector-effect: non-scaling-stroke; fill-rule: evenodd; }
    .layer-line { fill: none; stroke: #222; stroke-width: 1.5; vector-effect: non-scaling-stroke; }
    .layer-point { fill: #222; stroke: #fff; stroke-width: 1; vector-effect: non-scaling-stroke; }
    .svg-layer-srf_nat_marine_regions_pg .layer-fill { fill: none; fill-opacity: 0.45; stroke: none; stroke-width: 1.0; }
    .svg-layer-srf_nat_marine_regions_pg .layer-line { stroke: #222222; stroke-width: 1.5; }
    .svg-layer-srf_nat_marine_regions_pg .layer-point { fill: #222222; stroke: #ffffff; stroke-width: 1.0; }
  </style>
  <g id="srf_nat_marine_regions_pg" class="svg-layer svg-layer-srf_nat_marine_regions_pg">
    <g class="feature-class-layer feature-class-bay" data-feature-class="Bay">
      <g class="feature feature-class-bay" data-layer-id="srf_nat_marine_regions_pg" data-feature-class="Bay" data-uuid="e01b9536-fc7c-4052-ac9b-39d08fd7fce0">
        <title>Bay of Balduran</title>
        <path class="layer-fill" d="M760.476 623.043 L760.443 623.028 L760.322 622.992 L760.202 622.955 L759.962 622.918 L759.722 622.882 L759.481 622.845 L759.241 622.809 L759.161 622.772 L759.081 622.736 L759.001 622.699 L758.921 622.662 L758.8 622.626 L758.68 622.589 L758.64 622.553 L758.6 622.516 L758.56 622.48 L758.52 622.443 L758.48 622.406 L758.44 622.37 L758.4 622.333 L758.36 622.297 L758.32 622.26 L758.28 622.224 L758.24 622.187 L758.2 622.15 L758.16 622.114 L758.12 622.041 L758.079 621.967 L758.039 621.931 L757.999 621.894 L757.959 621.858 L757.839 621.821 L757.719 621.785 L757.519 621.748 L757.318 621.711 L756.838 621.675 L756.357 621.711 L755.836 621.748 L755.316 621.711 L755.196 621.675 L755.075 621.638 L754.955 621.602 L754.835 621.565 L754.675 621.529 L754.515 621.492 L754.435 621.455 L754.354 621.419 L754.274 621.382 L754.194 621.346 L754.154 621.309 L754.114 621.273 L754.034 621.236 L753.954 621.199 L753.914 621.163 L753.874 621.126 L753.553 621.09 L753.233 621.126 L753.153 621.163 L753.073 621.199 L753.033 621.236 L752.993 621.273 L752.953 621.309 L752.913 621.346 L752.873 621.382 L752.832 621.419 L752.792 621.455 L752.752 621.492 L752.712 621.529 L752.672 621.565 L752.632 621.602 L752.592 621.638 L752.552 621.675 L752.512 621.711 L752.472 621.748 L752.432 621.785 L752.392 621.821 L752.352 621.858 L752.312 621.894 L752.272 621.931 L752.232 621.967 L752.192 622.004 L752.112 622.041 L752.031 622.077 L751.951 622.114 L751.871 622.15 L751.831 622.187 L751.791 622.224 L751.711 622.26 L751.631 622.297 L751.551 622.333 L751.471 622.37 L751.15 622.406 L750.83 622.443 L750.71 622.48 L750.589 622.516 L750.469 622.553 L750.349 622.589 L750.269 622.626 L750.189 622.662 L749.989 622.699 L749.788 622.736 L749.468 622.772 L749.148 622.736 L749.067 622.699 L748.987 622.662 L748.827 622.626 L748.667 622.662 L748.627 622.699 L748.587 622.736 L748.547 622.772 L748.507 622.809 L748.467 622.845 L748.427 622.882 L748.387 622.918 L748.346 622.955 L748.306 622.992 L748.266 623.028 L748.226 623.065 L748.186 623.101 L748.106 623.138 L748.026 623.174 L747.986 623.211 L747.946 623.248 L747.906 623.284 L747.866 623.321 L747.786 623.357 L747.706 623.394 L747.626 623.43 L747.545 623.467 L747.505 623.504 L747.465 623.54 L747.385 623.577 L747.305 623.613 L747.265 623.65 L747.225 623.686 L747.065 623.723 L746.905 623.76 L746.704 623.796 L746.504 623.76 L746.304 623.723 L746.103 623.76 L746.063 623.796 L746.023 623.833 L745.983 623.869 L745.943 623.906 L745.903 623.943 L745.863 623.979 L745.743 624.016 L745.623 624.052 L745.302 624.089 L744.982 624.052 L744.862 624.016 L744.742 623.979 L744.662 623.943 L744.581 623.906 L744.501 623.869 L744.421 623.833 L744.341 623.796 L744.261 623.76 L744.141 623.723 L744.021 623.686 L743.941 623.65 L743.861 623.613 L743.82 623.577 L743.78 623.54 L743.74 623.504 L743.7 623.43 L743.66 623.357 L743.62 623.321 L743.58 623.284 L743.54 623.248 L743.5 623.211 L743.46 623.138 L743.42 623.065 L743.38 623.101 L743.3 623.138 L743.22 623.174 L743.14 623.211 L743.059 623.248 L743.019 623.284 L742.979 623.321 L742.619 623.357 L742.258 623.321 L742.138 623.284 L742.018 623.248 L741.778 623.211 L741.537 623.248 L741.297 623.284 L741.057 623.248 L741.017 623.211 L740.977 623.174 L740.937 623.138 L740.897 623.101 L740.816 623.065 L740.736 623.028 L740.656 622.992 L740.576 622.955 L740.296 622.918 L740.015 622.845 L739.975 622.772 L739.935 622.699 L739.895 622.626 L739.855 622.589 L739.815 622.553 L739.775 622.48 L739.735 622.406 L739.695 622.333 L739.655 622.26 L739.615 622.224 L739.575 622.187 L739.535 622.15 L739.495 622.114 L739.455 622.077 L739.415 622.041 L739.375 622.004 L739.334 621.967 L739.294 621.931 L739.214 621.894 L739.134 621.821 L739.094 621.748 L739.054 621.711 L739.014 621.675 L738.974 621.602 L738.934 621.529 L738.894 621.455 L738.854 621.382 L738.814 621.309 L738.774 621.236 L738.734 621.199 L738.694 621.163 L738.654 621.09 L738.614 621.017 L738.573 620.943 L738.533 620.87 L738.493 620.834 L738.453 620.797 L738.413 620.724 L738.373 620.651 L738.333 620.578 L738.293 620.505 L738.253 620.431 L738.213 620.358 L738.173 620.248 L738.133 620.139 L738.093 620.066 L738.053 619.992 L738.013 619.919 L737.973 619.846 L737.933 619.773 L737.893 619.7 L737.853 619.663 L737.292 619.627 L736.731 619.59 L736.691 619.554 L736.651 619.517 L736.571 619.48 L736.491 619.444 L736.451 619.407 L736.411 619.371 L736.33 619.334 L736.25 619.298 L736.21 619.261 L736.17 619.224 L736.09 619.188 L736.01 619.151 L735.97 619.115 L735.93 619.078 L735.85 619.042 L735.77 619.005 L735.73 618.968 L735.69 618.932 L735.61 618.895 L735.529 618.859 L735.489 618.822 L735.449 618.786 L735.409 618.749 L735.369 618.712 L735.329 618.676 L735.289 618.639 L735.209 618.603 L735.129 618.566 L735.089 618.529 L735.049 618.493 L735.009 618.456 L734.969 618.42 L734.929 618.383 L734.889 618.237 L734.848 618.091 L734.808 617.908 L734.768 617.725 L734.728 617.579 L734.688 617.432 L734.648 617.286 L734.608 617.14 L734.568 616.957 L734.528 616.774 L734.488 616.591 L734.448 616.408 L734.408 616.335 L734.368 616.262 L734.328 616.225 L734.288 616.189 L734.248 616.116 L734.208 616.042 L734.168 616.006 L734.128 615.969 L734.087 615.896 L734.047 615.823 L734.007 615.786 L733.967 615.75 L733.927 615.677 L733.887 615.604 L733.847 615.567 L733.807 615.53 L733.767 615.457 L733.727 615.384 L733.687 615.311 L733.647 615.238 L733.607 615.055 L733.567 614.872 L733.527 614.762 L733.567 614.653 L733.607 614.543 L733.647 614.433 L733.687 614.287 L733.647 614.141 L733.607 614.104 L733.567 614.067 L733.527 614.031 L733.487 613.994 L733.447 613.921 L733.407 613.848 L733.367 613.811 L733.326 613.775 L733.286 613.738 L733.246 613.702 L733.206 613.665 L733.166 613.629 L733.126 613.592 L733.086 613.555 L733.046 613.519 L733.006 613.482 L732.966 613.446 L732.926 613.409 L732.886 613.372 L732.846 613.336 L732.806 613.299 L732.766 613.263 L732.726 613.226 L732.686 613.19 L732.646 613.153 L732.606 613.116 L732.565 613.08 L732.525 613.043 L732.485 612.97 L732.445 612.897 L732.405 612.86 L732.365 612.824 L732.325 612.714 L732.285 612.604 L732.245 612.531 L732.205 612.458 L732.165 612.348 L732.125 612.239 L732.085 612.129 L732.045 612.019 L732.005 611.946 L731.965 611.873 L731.925 611.763 L731.885 611.653 L731.844 611.617 L731.804 611.58 L731.764 611.544 L731.724 611.507 L731.684 611.434 L731.644 611.361 L731.604 611.324 L731.564 611.288 L731.524 611.251 L731.484 611.215 L731.444 611.141 L731.404 611.068 L731.364 611.032 L731.324 610.995 L731.284 610.922 L731.244 610.849 L731.204 610.812 L731.164 610.776 L731.124 610.739 L731.083 610.703 L731.043 610.629 L731.003 610.556 L730.963 610.52 L730.923 610.483 L730.883 610.447 L730.843 610.41 L730.803 610.337 L730.763 610.264 L730.723 610.117 L730.683 609.971 L730.643 609.788 L730.603 609.605 L730.563 609.422 L730.523 609.24 L730.483 609.057 L730.443 608.874 L730.403 608.801 L730.363 608.728 L730.322 608.691 L730.282 608.654 L730.242 608.618 L730.202 608.581 L730.162 608.545 L730.122 608.508 L730.082 608.472 L730.002 608.435 L729.922 608.398 L729.882 608.362 L729.842 608.325 L729.802 608.289 L729.762 608.252 L729.722 608.215 L729.682 608.179 L729.642 608.142 L729.602 608.106 L729.561 608.069 L729.521 608.033 L729.481 607.996 L729.441 607.886 L729.401 607.777 L729.361 607.557 L729.321 607.338 L729.281 607.155 L729.241 606.972 L729.201 606.643 L729.161 606.314 L729.121 606.058 L729.081 605.802 L729.041 605.728 L729.001 605.655 L728.961 605.546 L728.921 605.436 L728.881 605.363 L728.84 605.29 L728.8 605.216 L728.76 605.143 L728.72 605.07 L728.76 604.997 L728.8 604.924 L728.84 604.851 L728.881 604.741 L728.921 604.631 L728.961 604.558 L729.001 604.485 L729.041 604.375 L729.001 604.265 L728.961 604.119 L728.921 603.973 L728.881 603.9 L728.84 603.827 L728.8 603.717 L728.84 603.607 L728.881 603.571 L728.921 603.534 L728.961 603.461 L729.001 603.388 L729.041 603.168 L729.081 602.949 L729.121 602.912 L729.161 602.876 L729.201 602.839 L729.241 602.802 L729.281 602.729 L729.321 602.656 L729.361 602.62 L729.401 602.583 L729.441 602.546 L729.481 602.51 L729.521 602.327 L729.561 602.144 L729.602 602.071 L729.561 601.998 L729.521 601.925 L729.481 601.852 L729.441 601.778 L729.401 601.705 L729.361 601.632 L729.321 601.559 L729.281 601.486 L729.241 601.413 L729.201 601.339 L729.161 601.266 L729.121 601.23 L729.081 601.193 L729.041 601.157 L729.001 601.12 L728.961 601.083 L728.921 601.047 L728.881 601.01 L728.84 600.974 L728.8 600.864 L728.76 600.754 L728.72 600.608 L728.68 600.462 L728.64 600.315 L728.6 600.169 L728.56 600.096 L728.52 600.023 L728.48 599.986 L728.44 599.95 L728.4 599.877 L728.36 599.803 L728.32 599.73 L728.28 599.657 L728.24 599.62 L728.2 599.584 L728.16 599.547 L728.12 599.511 L728.079 599.474 L728.039 599.438 L727.999 599.364 L727.959 599.291 L727.919 599.108 L727.879 598.926 L727.839 598.889 L727.799 598.852 L727.759 598.816 L727.719 598.779 L727.679 598.743 L727.639 598.706 L727.599 598.633 L727.559 598.56 L727.519 598.523 L727.479 598.487 L727.439 598.45 L727.399 598.414 L727.359 598.304 L727.318 598.194 L727.278 598.084 L727.238 597.975 L727.198 597.901 L727.158 597.828 L727.118 597.792 L727.078 597.755 L727.038 597.682 L726.998 597.609 L726.958 597.536 L726.918 597.463 L726.878 597.207 L726.918 596.951 L726.958 596.804 L726.998 596.658 L727.038 596.621 L727.078 596.585 L727.118 596.548 L727.158 596.512 L727.198 596.439 L727.238 596.365 L727.278 596.329 L727.318 596.292 L727.359 596.219 L727.399 596.146 L727.439 595.963 L727.479 595.78 L727.519 595.414 L727.559 595.049 L727.599 594.976 L727.639 594.902 L727.679 594.829 L727.719 594.756 L727.759 594.683 L727.799 594.61 L727.839 594.537 L728.039 594.464 L728.24 594.427 L728.48 594.39 L728.72 594.317 L728.76 594.244 L728.8 593.951 L728.84 593.659 L728.881 593.476 L728.921 593.293 L728.961 593.183 L729.001 593.074 L729.041 593.001 L729.081 592.927 L729.121 592.854 L729.161 592.781 L729.201 592.708 L729.241 592.635 L729.281 592.562 L729.321 592.488 L729.361 592.415 L729.401 592.342 L729.441 592.306 L729.481 592.269 L729.521 592.196 L729.561 592.123 L729.602 592.05 L729.642 591.976 L729.682 591.903 L729.722 591.83 L729.762 591.757 L729.802 591.684 L729.842 591.611 L729.882 591.538 L729.922 591.428 L729.882 591.318 L729.842 591.208 L729.802 591.099 L729.762 590.989 L729.722 590.879 L729.682 590.806 L729.642 590.733 L729.602 590.66 L729.642 590.587 L729.682 590.44 L729.722 590.294 L729.762 590.148 L729.802 590.001 L729.842 589.489 L729.802 588.977 L729.762 588.868 L729.722 588.758 L729.682 588.648 L729.642 588.538 L729.602 588.392 L729.682 588.246 L729.762 588.209 L729.802 588.173 L729.842 588.136 L729.882 588.1 L729.922 588.063 L730.002 588.026 L730.082 587.99 L730.122 587.953 L730.162 587.917 L730.202 587.88 L730.242 587.844 L730.282 587.807 L730.322 587.77 L730.363 587.734 L730.403 587.697 L730.443 587.661 L730.483 587.624 L730.523 587.588 L730.563 587.551 L730.603 587.514 L730.643 587.478 L731.083 587.441 L731.524 587.405 L731.604 587.368 L731.684 587.331 L731.764 587.295 L731.844 587.258 L731.925 587.222 L732.005 587.185 L732.325 587.149 L732.646 587.185 L732.686 587.222 L732.726 587.185 L732.886 587.149 L733.046 587.112 L733.166 587.075 L733.286 587.039 L733.367 587.002 L733.447 586.966 L733.527 586.929 L733.607 586.893 L733.647 586.856 L733.687 586.819 L733.767 586.783 L733.847 586.746 L733.967 586.71 L734.087 586.746 L734.368 586.783 L734.648 586.71 L734.688 586.637 L734.728 586.563 L734.768 586.49 L734.808 586.417 L734.848 586.344 L734.889 586.307 L734.929 586.271 L734.969 586.198 L735.009 586.125 L735.049 586.051 L735.089 585.978 L735.129 585.905 L735.169 585.832 L735.209 585.759 L735.289 585.686 L735.369 585.649 L735.449 585.612 L735.529 585.576 L735.61 585.539 L735.69 585.503 L735.77 585.466 L735.85 585.43 L735.89 585.393 L735.93 585.356 L735.97 585.32 L736.01 585.283 L736.05 585.247 L736.09 585.21 L736.17 585.174 L736.25 585.137 L736.29 585.1 L736.33 585.064 L736.371 585.027 L736.411 584.991 L736.451 584.954 L736.491 584.918 L736.531 584.881 L736.571 584.844 L736.611 584.808 L736.651 584.698 L736.611 584.588 L736.571 584.442 L736.531 584.296 L736.491 584.186 L736.451 584.076 L736.411 584.04 L736.451 584.003 L736.491 583.93 L736.531 583.857 L736.571 583.784 L736.611 583.711 L736.651 583.637 L736.691 583.564 L736.731 583.455 L736.771 583.345 L736.811 583.308 L736.851 583.272 L736.891 583.199 L736.931 583.125 L736.971 583.089 L737.011 583.052 L737.051 582.979 L737.091 582.906 L737.132 582.869 L737.172 582.833 L737.212 582.76 L737.292 582.687 L737.372 582.65 L737.412 582.613 L737.452 582.577 L737.492 582.54 L737.532 582.504 L737.572 582.467 L737.612 582.431 L737.692 582.394 L737.772 582.357 L737.812 582.321 L737.853 582.284 L737.893 582.248 L737.933 582.211 L738.013 582.174 L738.093 582.138 L738.173 582.101 L738.253 582.065 L738.333 582.028 L738.413 581.992 L738.493 581.955 L738.573 581.918 L738.774 581.882 L738.974 581.918 L739.134 581.955 L739.294 581.992 L739.735 582.028 L740.176 581.992 L740.296 581.955 L740.416 581.918 L740.536 581.882 L740.656 581.845 L740.736 581.809 L740.816 581.772 L740.977 581.736 L741.137 581.699 L741.257 581.662 L741.377 581.626 L741.858 581.589 L742.338 581.553 L742.419 581.516 L742.499 581.48 L742.579 581.443 L742.659 581.406 L742.699 581.37 L742.739 581.333 L742.819 581.297 L742.899 581.26 L742.979 581.224 L743.059 581.187 L743.099 581.15 L743.14 581.114 L743.22 581.077 L743.3 581.041 L743.34 581.004 L743.38 580.968 L743.42 580.931 L743.46 580.894 L743.54 580.858 L743.62 580.821 L743.66 580.785 L743.7 580.748 L743.74 580.712 L743.78 580.675 L743.861 580.638 L743.941 580.602 L744.021 580.565 L744.101 580.529 L744.141 580.492 L744.181 580.455 L744.301 580.419 L744.421 580.382 L744.501 580.346 L744.581 580.309 L744.662 580.273 L744.742 580.236 L744.782 580.199 L744.822 580.163 L744.902 580.126 L744.982 580.09 L745.022 580.053 L745.062 580.017 L745.142 579.98 L745.222 579.943 L745.463 579.907 L745.703 579.943 L745.823 579.98 L745.943 580.017 L746.023 580.053 L746.103 580.09 L746.144 580.126 L746.184 580.163 L746.264 580.199 L746.344 580.236 L746.424 580.273 L746.504 580.309 L746.584 580.346 L746.664 580.382 L746.905 580.419 L747.145 580.382 L747.265 580.346 L747.385 580.382 L747.465 580.419 L747.545 580.455 L747.585 580.492 L747.626 580.529 L747.706 580.565 L747.786 580.602 L747.826 580.638 L747.866 580.675 L747.906 580.712 L747.946 580.675 L748.026 580.638 L748.106 580.602 L748.186 580.565 L748.266 580.529 L748.346 580.492 L748.427 580.455 L748.507 580.419 L748.587 580.382 L748.627 580.346 L748.667 580.309 L748.747 580.273 L748.827 580.236 L749.308 580.199 L749.788 580.236 L749.949 580.273 L750.109 580.236 L750.189 580.199 L750.269 580.163 L750.309 580.126 L750.349 580.09 L750.429 580.053 L750.509 580.017 L750.549 579.98 L750.589 579.943 L750.67 579.907 L750.75 579.87 L750.79 579.834 L750.83 579.797 L750.87 579.761 L750.91 579.724 L751.07 579.687 L751.23 579.651 L751.471 579.614 L751.711 579.578 L751.831 579.541 L751.951 579.505 L752.031 579.468 L752.112 579.431 L752.192 579.395 L752.272 579.358 L752.352 579.322 L752.432 579.285 L752.472 579.249 L752.512 579.212 L752.592 579.175 L752.672 579.139 L752.752 579.102 L752.832 579.066 L752.873 579.029 L752.913 578.993 L752.953 578.956 L752.993 578.919 L753.033 578.883 L753.073 578.846 L753.113 578.81 L753.153 578.773 L753.193 578.736 L753.233 578.7 L753.273 578.663 L753.313 578.627 L753.393 578.59 L753.473 578.554 L753.513 578.517 L753.553 578.48 L753.593 578.444 L753.634 578.407 L753.674 578.371 L753.714 578.334 L753.794 578.298 L753.874 578.261 L753.954 578.224 L754.034 578.188 L754.154 578.151 L754.274 578.115 L754.354 578.078 L754.435 578.042 L754.515 578.005 L754.595 577.968 L754.715 577.932 L754.835 577.895 L754.915 577.859 L754.995 577.822 L755.075 577.786 L755.156 577.749 L755.396 577.712 L755.636 577.749 L755.836 577.786 L756.037 577.822 L756.317 577.859 L756.597 577.895 L756.638 577.932 L756.678 577.968 L756.758 578.005 L756.838 578.042 L756.878 578.078 L756.918 578.115 L756.958 578.151 L756.998 578.188 L757.078 578.224 L757.158 578.188 L757.238 578.151 L757.318 578.115 L757.359 578.078 L757.399 578.042 L757.479 578.005 L757.559 577.968 L757.599 577.932 L757.639 577.895 L757.679 577.859 L757.719 577.822 L757.759 577.786 L757.799 577.749 L757.919 577.712 L758.039 577.749 L758.28 577.786 L758.52 577.749 L758.6 577.712 L758.68 577.676 L758.72 577.639 L758.76 577.603 L758.8 577.566 L758.84 577.456 L758.881 577.347 L758.921 577.237 L758.961 577.127 L759.001 577.017 L759.041 576.908 L759.081 576.761 L759.121 576.615 L759.161 576.286 L759.201 575.957 L759.241 575.847 L759.281 575.737 L759.321 575.701 L759.361 575.664 L759.401 575.628 L759.441 575.591 L759.481 575.555 L759.521 575.518 L759.561 575.481 L759.601 575.445 L759.642 575.408 L759.682 575.372 L759.722 575.335 L759.762 575.298 L759.802 575.262 L759.842 575.225 L759.882 575.189 L759.922 575.152 L759.962 575.116 L760.002 575.079 L760.042 575.042 L760.082 575.006 L760.122 574.933 L760.162 574.86 L760.202 574.786 L760.242 574.713 L760.282 574.64 L760.322 574.567 L760.363 574.494 L760.403 574.421 L760.443 574.311 L760.483 574.201 L760.523 574.055 L760.563 573.909 L760.603 573.799 L760.643 573.689 L760.683 573.579 L760.686 573.571 L760.476 623.043 Z" />
      </g>
    </g>
  </g>
</svg>
